<svg width="1920" height="1080" viewBox="0 0 1920 1080" fill="none" xmlns="http://www.w3.org/2000/svg">
<g opacity="0.11">
<path d="M1180.33 315.387C1213.01 319.143 1239.5 326.66 1264.58 335.164C1272.82 337.955 1280.92 340.863 1289.06 343.781C1305.66 349.732 1322.38 355.728 1340.54 360.871C1358.99 366.1 1378.69 370.813 1398.29 375.502C1407.89 377.798 1417.46 380.088 1426.85 382.43C1455.49 389.573 1482.46 397.205 1503.71 406.998C1526.01 417.273 1546.42 428.36 1562.17 440.053C1577.97 451.787 1588.81 463.926 1592.41 476.217C1595.93 488.212 1591.42 500.351 1582.27 512.749C1573.12 525.138 1559.63 537.374 1545.96 549.415C1533.32 560.542 1516.36 570.833 1497.52 580.856C1485.2 587.405 1472.17 593.797 1459.08 600.22C1452.12 603.633 1445.15 607.054 1438.25 610.513C1430.03 614.637 1422.04 618.814 1414.08 622.98C1383.83 638.798 1353.87 654.465 1312.4 666.531C1258.32 682.267 1194.47 693.036 1127.89 700.806C1119.03 701.839 1110.09 702.926 1101.09 704.02C1039.49 711.506 974.902 719.356 914.047 713.037C878.604 709.358 852.524 700.232 827.592 690.122C823.001 688.261 818.443 686.363 813.868 684.458C793.619 676.027 773.051 667.462 747.895 661.325C724.012 655.498 696.183 651.907 668.662 648.355C663.824 647.731 658.997 647.108 654.201 646.475C622.013 642.221 591.332 637.489 568.578 628.749C545.884 620.032 533.81 609.177 523.852 597.77C521.246 594.784 518.759 591.723 516.246 588.631C509.193 579.95 501.94 571.023 491.295 562.833C483.341 556.713 473.336 550.894 462.825 545.221C458.111 542.678 453.337 540.185 448.584 537.703C442.629 534.593 436.707 531.501 430.981 528.349C420.745 522.715 411.477 517.072 404.528 511.24C397.537 505.373 393.198 499.567 392.273 493.68C390.385 481.667 398.039 469.324 412.312 457.045C426.484 444.852 446.635 433.204 468.39 422.611C489.093 412.531 517.012 405.119 546.769 398.202C554.511 396.402 562.376 394.637 570.261 392.866C592.59 387.853 615.08 382.803 635.383 376.85C654.343 371.29 671.331 364.85 688.17 358.467C693.926 356.285 699.664 354.109 705.458 351.978C728.236 343.598 752.016 335.839 781.497 330.815C827.115 323.041 877.9 321.69 928.844 320.335C944.379 319.922 959.929 319.508 975.352 318.912C993.607 318.206 1011.98 317.098 1030.33 315.991C1081.28 312.919 1132.16 309.852 1180.33 315.387Z" stroke="#F8BD00" stroke-opacity="0.94" stroke-width="4"/>
<path d="M1180.33 379.635C1213.01 383.391 1239.5 390.908 1264.58 399.412C1272.82 402.204 1280.92 405.111 1289.06 408.029C1305.66 413.981 1322.38 419.976 1340.54 425.12C1358.99 430.348 1378.69 435.061 1398.29 439.75C1407.89 442.046 1417.46 444.337 1426.85 446.679C1455.49 453.822 1482.46 461.453 1503.71 471.246C1526.01 481.521 1546.42 492.608 1562.17 504.301C1577.97 516.035 1588.81 528.174 1592.41 540.465C1595.93 552.46 1591.42 564.599 1582.27 576.997C1573.12 589.386 1559.63 601.622 1545.96 613.663C1533.32 624.79 1516.36 635.082 1497.52 645.104C1485.2 651.654 1472.17 658.045 1459.08 664.468C1452.12 667.881 1445.15 671.302 1438.25 674.761C1430.03 678.885 1422.04 683.062 1414.08 687.228C1383.83 703.046 1353.87 718.714 1312.4 730.779C1258.32 746.515 1194.47 757.284 1127.89 765.054C1119.03 766.088 1110.09 767.174 1101.09 768.268C1039.49 775.754 974.902 783.604 914.047 777.286C878.604 773.606 852.524 764.481 827.592 754.371C823.001 752.509 818.443 750.611 813.868 748.706C793.619 740.275 773.051 731.71 747.895 725.573C724.012 719.746 696.183 716.155 668.662 712.604C663.824 711.98 658.997 711.357 654.201 710.723C622.013 706.469 591.332 701.738 568.578 692.997C545.884 684.28 533.81 673.425 523.852 662.018C521.246 659.033 518.759 655.971 516.246 652.879C509.193 644.198 501.94 635.272 491.295 627.081C483.341 620.961 473.336 615.142 462.825 609.47C458.111 606.926 453.337 604.433 448.584 601.951C442.629 598.841 436.707 595.749 430.981 592.597C420.745 586.964 411.477 581.32 404.528 575.489C397.537 569.621 393.198 563.815 392.273 557.928C390.385 545.915 398.039 533.573 412.312 521.293C426.484 509.1 446.635 497.452 468.39 486.86C489.093 476.779 517.012 469.367 546.769 462.45C554.511 460.651 562.376 458.885 570.261 457.114C592.59 452.101 615.08 447.052 635.383 441.098C654.343 435.539 671.331 429.099 688.17 422.715C693.926 420.533 699.664 418.358 705.458 416.226C728.236 407.847 752.016 400.087 781.497 395.063C827.115 387.29 877.9 385.939 928.844 384.583C944.379 384.17 959.929 383.756 975.352 383.16C993.607 382.454 1011.98 381.347 1030.33 380.24C1081.28 377.168 1132.16 374.1 1180.33 379.635Z" stroke="#F8BD00" stroke-opacity="0.46" stroke-width="4"/>
<path d="M1205.34 266.061C1238.02 269.817 1264.51 277.334 1289.59 285.838C1297.83 288.63 1305.94 291.537 1314.07 294.455C1330.67 300.407 1347.39 306.402 1365.55 311.546C1384.01 316.774 1403.7 321.487 1423.3 326.176C1432.9 328.472 1442.47 330.763 1451.86 333.105C1480.5 340.248 1507.47 347.879 1528.72 357.672C1551.02 367.947 1571.43 379.034 1587.18 390.727C1602.99 402.461 1613.82 414.6 1617.42 426.891C1620.94 438.886 1616.43 451.025 1607.28 463.423C1598.13 475.812 1584.64 488.048 1570.97 500.089C1558.33 511.216 1541.37 521.508 1522.53 531.53C1510.22 538.08 1497.19 544.471 1484.09 550.894C1477.13 554.307 1470.16 557.729 1463.26 561.187C1455.04 565.311 1447.06 569.488 1439.09 573.654C1408.84 589.472 1378.89 605.14 1337.42 617.205C1283.33 632.941 1219.49 643.71 1152.9 651.48C1144.04 652.514 1135.1 653.6 1126.1 654.694C1064.5 662.18 999.913 670.03 939.058 663.712C903.615 660.032 877.535 650.907 852.604 640.797C848.013 638.935 843.454 637.037 838.88 635.132C818.631 626.701 798.062 618.136 772.907 611.999C749.023 606.172 721.194 602.581 693.674 599.03C688.836 598.406 684.008 597.783 679.213 597.149C647.025 592.895 616.344 588.164 593.589 579.423C570.896 570.706 558.821 559.851 548.864 548.444C546.258 545.459 543.77 542.397 541.258 539.305C534.205 530.624 526.952 521.698 516.307 513.507C508.353 507.387 498.348 501.568 487.837 495.896C483.123 493.352 478.349 490.859 473.595 488.377C467.641 485.267 461.719 482.175 455.993 479.023C445.757 473.39 436.489 467.746 429.54 461.915C422.548 456.047 418.209 450.241 417.284 444.354C415.397 432.341 423.051 419.999 437.324 407.719C451.496 395.526 471.647 383.878 493.401 373.286C514.104 363.205 542.024 355.793 571.781 348.876C579.522 347.077 587.388 345.311 595.273 343.54C617.602 338.527 640.092 333.478 660.394 327.524C679.355 321.965 696.343 315.525 713.182 309.141C718.938 306.959 724.676 304.784 730.47 302.652C753.248 294.273 777.027 286.513 806.509 281.489C852.126 273.716 902.912 272.365 953.856 271.009C969.391 270.596 984.941 270.182 1000.36 269.586C1018.62 268.88 1036.99 267.773 1055.35 266.666C1106.3 263.594 1157.17 260.526 1205.34 266.061Z" stroke="#F8BD00" stroke-opacity="0.46" stroke-width="4"/>
<path d="M1180.34 176.061C1213.02 179.817 1239.51 187.334 1264.59 195.838C1272.83 198.63 1280.94 201.537 1289.07 204.455C1305.67 210.407 1322.39 216.402 1340.55 221.546C1359.01 226.774 1378.7 231.487 1398.3 236.176C1407.9 238.472 1417.47 240.763 1426.86 243.105C1455.5 250.248 1482.47 257.879 1503.72 267.672C1526.02 277.947 1546.43 289.034 1562.18 300.727C1577.99 312.461 1588.82 324.6 1592.42 336.891C1595.94 348.886 1591.43 361.025 1582.28 373.423C1573.13 385.812 1559.64 398.048 1545.97 410.089C1533.33 421.216 1516.37 431.508 1497.53 441.53C1485.22 448.08 1472.19 454.471 1459.09 460.894C1452.13 464.307 1445.16 467.729 1438.26 471.187C1430.04 475.311 1422.06 479.488 1414.09 483.654C1383.84 499.472 1353.89 515.14 1312.42 527.205C1258.33 542.941 1194.49 553.71 1127.9 561.48C1119.04 562.514 1110.1 563.6 1101.1 564.694C1039.5 572.18 974.913 580.03 914.058 573.712C878.615 570.032 852.535 560.907 827.604 550.797C823.013 548.935 818.454 547.037 813.88 545.132C793.631 536.701 773.062 528.136 747.907 521.999C724.023 516.172 696.194 512.581 668.674 509.03C663.836 508.406 659.008 507.783 654.213 507.149C622.025 502.895 591.344 498.164 568.589 489.423C545.896 480.706 533.821 469.851 523.864 458.444C521.258 455.459 518.77 452.397 516.258 449.305C509.205 440.624 501.952 431.698 491.307 423.507C483.353 417.387 473.348 411.568 462.837 405.896C458.123 403.352 453.349 400.859 448.595 398.377C442.641 395.267 436.719 392.175 430.993 389.023C420.757 383.39 411.489 377.746 404.54 371.915C397.548 366.047 393.209 360.241 392.284 354.354C390.397 342.341 398.051 329.999 412.324 317.719C426.496 305.526 446.647 293.878 468.401 283.286C489.104 273.205 517.024 265.793 546.781 258.876C554.522 257.077 562.388 255.311 570.273 253.54C592.602 248.527 615.092 243.478 635.394 237.524C654.355 231.965 671.343 225.525 688.182 219.141C693.938 216.959 699.676 214.784 705.47 212.652C728.248 204.273 752.027 196.513 781.509 191.489C827.126 183.716 877.912 182.365 928.856 181.009C944.391 180.596 959.941 180.182 975.364 179.586C993.619 178.88 1011.99 177.773 1030.35 176.666C1081.3 173.594 1132.17 170.526 1180.34 176.061Z" stroke="#F8BD00" stroke-width="4"/>
<path d="M1180.33 428.847C1213.01 432.602 1239.5 440.119 1264.58 448.624C1272.82 451.415 1280.92 454.323 1289.06 457.241C1305.66 463.192 1322.38 469.188 1340.54 474.331C1358.99 479.56 1378.69 484.273 1398.29 488.961C1407.89 491.258 1417.46 493.548 1426.85 495.89C1455.49 503.033 1482.46 510.665 1503.71 520.457C1526.01 530.733 1546.42 541.819 1562.17 553.512C1577.97 565.247 1588.81 577.386 1592.41 589.677C1595.93 601.671 1591.42 613.81 1582.27 626.208C1573.12 638.598 1559.63 650.834 1545.96 662.875C1533.32 674.002 1516.36 684.293 1497.52 694.316C1485.2 700.865 1472.17 707.257 1459.08 713.68C1452.12 717.092 1445.15 720.514 1438.25 723.973C1430.03 728.097 1422.04 732.273 1414.08 736.439C1383.83 752.258 1353.87 767.925 1312.4 779.991C1258.32 795.727 1194.47 806.495 1127.89 814.266C1119.03 815.299 1110.09 816.386 1101.09 817.48C1039.49 824.966 974.902 832.815 914.047 826.497C878.604 822.817 852.524 813.692 827.592 803.582C823.001 801.721 818.443 799.823 813.868 797.918C793.619 789.486 773.051 780.922 747.895 774.784C724.012 768.957 696.183 765.366 668.662 761.815C663.824 761.191 658.997 760.568 654.201 759.934C622.013 755.681 591.332 750.949 568.578 742.209C545.884 733.492 533.81 722.637 523.852 711.23C521.246 708.244 518.759 705.183 516.246 702.09C509.193 693.41 501.94 684.483 491.295 676.292C483.341 670.172 473.336 664.353 462.825 658.681C458.111 656.138 453.337 653.645 448.584 651.162C442.629 648.053 436.707 644.961 430.981 641.809C420.745 636.175 411.477 630.531 404.528 624.7C397.537 618.833 393.198 613.027 392.273 607.14C390.385 595.127 398.039 582.784 412.312 570.504C426.484 558.311 446.635 546.663 468.39 536.071C489.093 525.991 517.012 518.579 546.769 511.662C554.511 509.862 562.376 508.096 570.261 506.326C592.59 501.313 615.08 496.263 635.383 490.31C654.343 484.75 671.331 478.31 688.17 471.926C693.926 469.745 699.664 467.569 705.458 465.438C728.236 457.058 752.016 449.299 781.497 444.275C827.115 436.501 877.9 435.15 928.844 433.795C944.379 433.381 959.929 432.968 975.352 432.371C993.607 431.666 1011.98 430.558 1030.33 429.451C1081.28 426.379 1132.16 423.311 1180.33 428.847Z" stroke="#F8BD00" stroke-opacity="0.46" stroke-width="4"/>
<path d="M1162.14 -196.968C1242.31 -210.888 1344.12 -218.943 1436.19 -213.047C1482.23 -210.098 1525.78 -203.666 1562.94 -192.765C1600.13 -181.856 1630.76 -166.519 1651.14 -145.874C1679.73 -116.922 1687.86 -85.9224 1684.91 -53.5547C1681.95 -21.0368 1667.8 12.8906 1651.62 47.5455C1648.64 53.9245 1645.6 60.3285 1642.54 66.7501C1629.06 95.0943 1615.41 123.779 1606.82 152.153C1596.26 187.011 1593.22 221.712 1607.54 255.154C1614.59 271.623 1629.33 284.943 1648.58 296.263C1667.85 307.596 1691.86 317.053 1717.78 325.692C1737.06 332.119 1757.47 338.117 1777.83 344.1C1784.84 346.159 1791.84 348.216 1798.78 350.287C1825.95 358.391 1852.3 366.731 1875.17 376.351C1931.35 399.991 1998.88 418.02 2065.94 435.923C2095.87 443.912 2125.7 451.877 2154.39 460.304C2200.95 473.982 2244.55 488.883 2280.87 507.093C2317.2 525.311 2346.08 546.753 2363.41 573.416C2377.43 594.994 2377.95 616.525 2369.49 638.114C2360.97 659.832 2343.37 681.61 2321.12 703.33C2298.9 725.03 2272.21 746.512 2245.7 767.689L2242.08 770.578C2216.83 790.736 2191.93 810.618 2171.58 830.044C2157.13 843.832 2143.08 858.265 2128.89 872.834C2065.11 938.336 1998.65 1006.59 1881.63 1031.35C1801.43 1048.31 1717.57 1037.7 1632.16 1023.99C1622.2 1022.39 1612.22 1020.75 1602.22 1019.11C1526.59 1006.67 1449.97 994.071 1374.25 998.42C1318.7 1001.61 1269.96 1016.82 1221.95 1033.51C1215.28 1035.83 1208.63 1038.18 1201.98 1040.52C1160.67 1055.09 1119.31 1069.68 1073.76 1077.74C1043.76 1083.04 1012.68 1090.3 981.278 1097.64L980.84 1097.74C949.56 1105.06 917.96 1112.44 886.683 1118.09C823.804 1129.46 762.511 1133.74 708.204 1116.42C648.449 1097.36 621.717 1061.69 600.974 1022.08C596.028 1012.64 591.429 1002.99 586.796 993.264L586.082 991.765C581.212 981.545 576.285 971.259 570.889 961.147C560.094 940.915 547.386 921.306 529.338 904.072C480.006 856.966 424.147 812.214 351.943 776.075C310.265 755.215 257.057 741.475 204.646 727.939C192.146 724.711 179.691 721.495 167.449 718.197C135.591 709.613 105.138 700.471 78.8717 689.124C52.592 677.771 30.6595 664.276 15.7156 647.072C-11.1277 616.169 -8.94905 581.786 4.3107 546.236C10.9481 528.441 20.3311 510.456 30.1603 492.59C32.4857 488.363 34.8374 484.141 37.1827 479.931C44.726 466.388 52.2031 452.964 58.5226 439.897C74.4295 407.006 99.8656 376.542 127.246 346.257C133.099 339.783 139.042 333.316 144.997 326.836C166.832 303.077 188.821 279.149 207.069 254.112C220.697 235.415 229.916 215.118 237.808 194.525C241.077 185.994 244.098 177.474 247.104 168.994C251.404 156.868 255.674 144.826 260.597 132.955C277.193 92.94 300.707 56.278 355.398 32.1733C409.651 8.26178 480.312 11.1839 553.377 15.8293C557.949 16.1199 562.53 16.4173 567.116 16.7151C635.57 21.159 705.23 25.6812 763.599 9.10197C838.961 -12.3041 893.355 -51.9913 947.046 -91.1649C951.2 -94.1959 955.35 -97.2238 959.505 -100.24C1017.4 -142.262 1076.37 -182.075 1162.14 -196.968Z" stroke="#F8BD00" stroke-opacity="0.46" stroke-width="4"/>
<path d="M1467.19 -203.73C1505.42 -198.786 1530.46 -185.522 1548.14 -167.447C1565.87 -149.321 1576.37 -126.199 1585.24 -101.217C1588.13 -93.1006 1590.84 -84.7622 1593.59 -76.345C1599.24 -59.0003 1605 -41.3206 1612.54 -24.5549C1623.8 0.462418 1639.14 23.7789 1664.36 41.7787C1702.35 68.8842 1757.75 83.7509 1813.35 98.1735C1815.1 98.6277 1816.85 99.0814 1818.6 99.535C1872.66 113.544 1926.45 127.483 1965.25 151.969C2040.49 199.443 2082.68 259.71 2124.75 319.81C2129.92 327.19 2135.08 334.568 2140.3 341.919C2154.03 361.238 2170.41 380.558 2186.8 399.885L2187.1 400.238C2203.42 419.475 2219.75 438.722 2233.64 458.109C2261.65 497.191 2279.35 536.294 2267.56 576.327C2255.79 616.287 2220.54 652.227 2173.89 684.69C2127.3 717.112 2069.68 745.838 2013.67 771.498C1965.01 793.793 1901.94 802.281 1838.87 810.768C1834.69 811.33 1830.52 811.892 1826.34 812.459C1759.4 821.541 1693.49 831.66 1647.18 859.818C1616.92 878.216 1598.85 904.284 1586.05 932.896C1576.88 953.371 1570.36 975.299 1564 996.659C1561.51 1005.04 1559.04 1013.33 1556.45 1021.42C1547.21 1050.25 1536.37 1076.54 1517.26 1095.8C1498.23 1114.98 1470.78 1127.4 1427.85 1128C1327.35 1129.43 1266.34 1083.95 1211.11 1028.34C1198.77 1015.91 1186.72 1002.99 1174.59 989.962C1173.14 988.407 1171.69 986.851 1170.23 985.294C1156.62 970.702 1142.84 956.048 1128.39 941.944C1099.46 913.731 1067.77 887.657 1029.11 868.512C958.438 833.518 867.184 812.966 775.303 804.789C719.742 799.844 657.973 808.577 597.691 817.1C583.225 819.146 568.845 821.179 554.657 823.008C517.925 827.743 482.45 831.123 449.917 829.898C417.384 828.673 387.923 822.848 363.154 809.273C351.555 802.917 343.987 795.867 339.4 788.344C334.823 780.838 333.128 772.721 333.499 764.068C334.246 746.614 343.371 727.175 354.122 706.756C355.865 703.444 357.65 700.109 359.444 696.756C368.617 679.616 378.025 662.038 383.283 644.999C389.598 624.536 390.068 604.418 376.796 586.411C362.698 567.285 340.257 551.815 313.847 538.21C287.417 524.595 256.795 512.743 226.186 500.966L224.232 500.214C194.23 488.672 164.321 477.166 138.228 464.061C111.551 450.662 89.0732 435.693 74.6231 417.506C45.2427 380.53 11.9506 333.153 -0.34295 288.808C-6.4802 266.67 -7.32898 245.478 -0.0279427 226.765C7.25569 208.097 22.7676 191.598 49.9538 179.035C125.211 144.257 224.178 151.182 327.36 161.656C336.015 162.535 344.7 163.439 353.401 164.344C448.147 174.201 544.86 184.264 627.596 164.644C651.957 158.867 668.289 148.341 680.307 135.158C692.277 122.026 699.881 106.345 706.921 90.4659C707.9 88.2583 708.868 86.0466 709.836 83.836C722.85 54.1123 735.784 24.5715 772.835 7.60999C812.183 -10.4028 862.49 -14.4135 914.535 -17.2915C919.154 -17.547 923.786 -17.7935 928.425 -18.0403C975.877 -20.5653 1023.99 -23.1256 1065.16 -35.6456C1123.3 -53.3267 1172.85 -86.304 1221.16 -118.451C1234.6 -127.391 1247.94 -136.267 1261.34 -144.732C1323.05 -183.716 1386.28 -214.192 1467.19 -203.73Z" stroke="#F8BD00" stroke-opacity="0.46" stroke-width="4"/>
<path d="M1467.19 -203.73C1505.42 -198.786 1530.46 -185.522 1548.14 -167.447C1565.87 -149.321 1576.37 -126.199 1585.24 -101.217C1588.13 -93.1006 1590.84 -84.7622 1593.59 -76.345C1599.24 -59.0003 1605 -41.3206 1612.54 -24.5549C1623.8 0.462418 1639.14 23.7789 1664.36 41.7787C1702.35 68.8842 1757.75 83.7509 1813.35 98.1735C1815.1 98.6277 1816.85 99.0814 1818.6 99.535C1872.66 113.544 1926.45 127.483 1965.25 151.969C2040.49 199.443 2082.68 259.71 2124.75 319.81C2129.92 327.19 2135.08 334.568 2140.3 341.919C2154.03 361.238 2170.41 380.558 2186.8 399.885L2187.1 400.238C2203.42 419.475 2219.75 438.722 2233.64 458.109C2261.65 497.191 2279.35 536.294 2267.56 576.327C2255.79 616.287 2220.54 652.227 2173.89 684.69C2127.3 717.112 2069.68 745.838 2013.67 771.498C1965.01 793.793 1901.94 802.281 1838.87 810.768C1834.69 811.33 1830.52 811.892 1826.34 812.459C1759.4 821.541 1693.49 831.66 1647.18 859.818C1616.92 878.216 1598.85 904.284 1586.05 932.896C1576.88 953.371 1570.36 975.299 1564 996.659C1561.51 1005.04 1559.04 1013.33 1556.45 1021.42C1547.21 1050.25 1536.37 1076.54 1517.26 1095.8C1498.23 1114.98 1470.78 1127.4 1427.85 1128C1327.35 1129.43 1266.34 1083.95 1211.11 1028.34C1198.77 1015.91 1186.72 1002.99 1174.59 989.962C1173.14 988.407 1171.69 986.851 1170.23 985.294C1156.62 970.702 1142.84 956.048 1128.39 941.944C1099.46 913.731 1067.77 887.657 1029.11 868.512C958.438 833.518 867.184 812.966 775.303 804.789C719.742 799.844 657.973 808.577 597.691 817.1C583.225 819.146 568.845 821.179 554.657 823.008C517.925 827.743 482.45 831.123 449.917 829.898C417.384 828.673 387.923 822.848 363.154 809.273C351.555 802.917 343.987 795.867 339.4 788.344C334.823 780.838 333.128 772.721 333.499 764.068C334.246 746.614 343.371 727.175 354.122 706.756C355.865 703.444 357.65 700.109 359.444 696.756C368.617 679.616 378.025 662.038 383.283 644.999C389.598 624.536 390.068 604.418 376.796 586.411C362.698 567.285 340.257 551.815 313.847 538.21C287.417 524.595 256.795 512.743 226.186 500.966L224.232 500.214C194.23 488.672 164.321 477.166 138.228 464.061C111.551 450.662 89.0732 435.693 74.6231 417.506C45.2427 380.53 11.9506 333.153 -0.34295 288.808C-6.4802 266.67 -7.32898 245.478 -0.0279427 226.765C7.25569 208.097 22.7676 191.598 49.9538 179.035C125.211 144.257 224.178 151.182 327.36 161.656C336.015 162.535 344.7 163.439 353.401 164.344C448.147 174.201 544.86 184.264 627.596 164.644C651.957 158.867 668.289 148.341 680.307 135.158C692.277 122.026 699.881 106.345 706.921 90.4659C707.9 88.2583 708.868 86.0466 709.836 83.836C722.85 54.1123 735.784 24.5715 772.835 7.60999C812.183 -10.4028 862.49 -14.4135 914.535 -17.2915C919.154 -17.547 923.786 -17.7935 928.425 -18.0403C975.877 -20.5653 1023.99 -23.1256 1065.16 -35.6456C1123.3 -53.3267 1172.85 -86.304 1221.16 -118.451C1234.6 -127.391 1247.94 -136.267 1261.34 -144.732C1323.05 -183.716 1386.28 -214.192 1467.19 -203.73Z" stroke="#FFD85A" stroke-width="4"/>
<path d="M1047.37 14.9959C1127.53 1.07611 1229.35 -6.97865 1321.42 -1.08229C1367.46 1.86586 1411 8.29822 1448.16 19.1997C1485.35 30.1086 1515.98 45.4455 1536.37 66.0907C1564.95 95.0424 1573.09 126.042 1570.14 158.41C1567.17 190.928 1553.02 224.855 1536.85 259.51C1533.87 265.889 1530.82 272.293 1527.77 278.714C1514.28 307.059 1500.64 335.744 1492.04 364.117C1481.49 398.975 1478.45 433.676 1492.76 467.118C1499.81 483.587 1514.56 496.907 1533.81 508.228C1553.08 519.56 1577.09 529.017 1603.01 537.656C1622.29 544.083 1642.7 550.082 1663.06 556.064C1670.06 558.123 1677.06 560.18 1684.01 562.252C1711.17 570.356 1737.53 578.696 1760.39 588.316C1816.58 611.956 1884.11 629.984 1951.17 647.887C1981.09 655.877 2010.93 663.841 2039.61 672.268C2086.18 685.946 2129.77 700.848 2166.09 719.058C2202.43 737.276 2231.31 758.717 2248.64 785.38C2262.66 806.958 2263.17 828.489 2254.71 850.079C2246.2 871.796 2228.6 893.574 2206.35 915.295C2184.13 936.994 2157.44 958.476 2130.93 979.654L2127.31 982.543C2102.06 1002.7 2077.16 1022.58 2056.8 1042.01C2042.36 1055.8 2028.3 1070.23 2014.12 1084.8C1950.34 1150.3 1883.88 1218.56 1766.86 1243.31C1686.66 1260.28 1602.8 1249.67 1517.38 1235.96C1507.43 1234.36 1497.44 1232.72 1487.45 1231.07C1411.81 1218.63 1335.2 1206.04 1259.48 1210.38C1203.93 1213.57 1155.19 1228.78 1107.18 1245.48C1100.51 1247.79 1093.86 1250.14 1087.21 1252.49C1045.9 1267.06 1004.54 1281.65 958.988 1289.7C928.989 1295.01 897.908 1302.26 866.505 1309.61L866.066 1309.71C834.787 1317.02 803.187 1324.41 771.91 1330.06C709.031 1341.42 647.738 1345.71 593.431 1328.39C533.676 1309.33 506.944 1273.65 486.201 1234.05C481.255 1224.61 476.656 1214.95 472.023 1205.23L471.309 1203.73C466.439 1193.51 461.512 1183.22 456.116 1173.11C445.321 1152.88 432.613 1133.27 414.565 1116.04C365.233 1068.93 309.374 1024.18 237.17 988.04C195.492 967.18 142.284 953.439 89.8724 939.904C77.3726 936.676 64.9181 933.459 52.676 930.161C20.8176 921.577 -9.63503 912.435 -35.9015 901.088C-62.1812 889.735 -84.1137 876.24 -99.0576 859.037C-125.901 828.134 -123.722 793.75 -110.462 758.2C-103.825 740.405 -94.4421 722.42 -84.6128 704.554C-82.2875 700.328 -79.9358 696.106 -77.5905 691.895C-70.0472 678.352 -62.5701 664.929 -56.2505 651.861C-40.3437 618.97 -14.9076 588.507 12.4729 558.221C18.3256 551.747 24.2688 545.28 30.2234 538.801C52.0584 515.041 74.0477 491.114 92.2959 466.077C105.923 447.38 115.143 427.082 123.034 406.489C126.303 397.958 129.325 389.438 132.331 380.958C136.631 368.832 140.901 356.79 145.824 344.919C162.42 304.904 185.933 268.242 240.625 244.138C294.878 220.226 365.539 223.148 438.604 227.794C443.176 228.084 447.757 228.382 452.343 228.679C520.797 233.123 590.457 237.646 648.826 221.066C724.188 199.66 778.582 159.973 832.273 120.799C836.427 117.768 840.577 114.741 844.732 111.724C902.624 69.7024 961.602 29.8889 1047.37 14.9959Z" stroke="#F8BD00" stroke-opacity="0.46" stroke-width="4"/>
<path d="M1352.41 8.23369C1390.65 13.1782 1415.68 26.4422 1433.37 44.5175C1451.1 62.6433 1461.6 85.7647 1470.47 110.747C1473.35 118.864 1476.07 127.202 1478.81 135.619C1484.46 152.964 1490.23 170.643 1497.77 187.409C1509.02 212.427 1524.37 235.743 1549.59 253.743C1587.57 280.848 1642.98 295.715 1698.57 310.138C1700.33 310.592 1702.08 311.046 1703.83 311.499C1757.88 325.508 1811.67 339.447 1850.48 363.933C1925.71 411.407 1967.9 471.674 2009.98 531.774C2015.14 539.154 2020.31 546.532 2025.53 553.883C2039.26 573.202 2055.63 592.522 2072.03 611.849L2072.33 612.202C2088.65 631.439 2104.97 650.686 2118.87 670.073C2146.87 709.156 2164.58 748.258 2152.79 788.291C2141.01 828.251 2105.76 864.191 2059.12 896.654C2012.53 929.076 1954.9 957.803 1898.9 983.462C1850.24 1005.76 1787.16 1014.24 1724.1 1022.73C1719.92 1023.29 1715.74 1023.86 1711.57 1024.42C1644.63 1033.51 1578.72 1043.62 1532.41 1071.78C1502.15 1090.18 1484.08 1116.25 1471.27 1144.86C1462.11 1165.34 1455.58 1187.26 1449.23 1208.62C1446.73 1217 1444.27 1225.3 1441.68 1233.38C1432.43 1262.22 1421.6 1288.51 1402.49 1307.77C1383.46 1326.95 1356.01 1339.36 1313.08 1339.97C1212.58 1341.39 1151.56 1295.91 1096.34 1240.31C1083.99 1227.88 1071.95 1214.95 1059.81 1201.93C1058.36 1200.37 1056.91 1198.81 1055.46 1197.26C1041.85 1182.67 1028.07 1168.01 1013.61 1153.91C984.691 1125.69 953 1099.62 914.336 1080.48C843.665 1045.48 752.411 1024.93 660.53 1016.75C604.969 1011.81 543.2 1020.54 482.918 1029.06C468.452 1031.11 454.072 1033.14 439.884 1034.97C403.152 1039.71 367.677 1043.09 335.143 1041.86C302.61 1040.64 273.149 1034.81 248.38 1021.24C236.782 1014.88 229.214 1007.83 224.627 1000.31C220.05 992.802 218.355 984.685 218.725 976.032C219.473 958.578 228.598 939.139 239.348 918.72C241.092 915.408 242.877 912.073 244.671 908.72C253.844 891.581 263.252 874.002 268.51 856.963C274.824 836.5 275.295 816.383 262.022 798.375C247.925 779.249 225.484 763.779 199.074 750.174C172.644 736.559 142.022 724.708 111.413 712.93L109.458 712.178C79.4565 700.636 49.5481 689.13 23.4552 676.025C-3.22218 662.627 -25.7 647.657 -40.1501 629.471C-69.5305 592.494 -102.823 545.118 -115.116 500.772C-121.253 478.634 -122.102 457.442 -114.801 438.729C-107.517 420.061 -92.0056 403.563 -64.8194 390.999C10.4378 356.221 109.405 363.146 212.586 373.62C221.242 374.499 229.927 375.403 238.628 376.308C333.373 386.166 430.087 396.228 512.823 376.608C537.183 370.831 553.516 360.305 565.534 347.122C577.504 333.99 585.107 318.309 592.148 302.43C593.126 300.222 594.095 298.011 595.063 295.8C608.077 266.076 621.011 236.536 658.062 219.574C697.41 201.561 747.717 197.551 799.761 194.673C804.38 194.417 809.013 194.171 813.652 193.924C861.104 191.399 909.221 188.838 950.387 176.319C1008.52 158.637 1058.08 125.66 1106.39 93.513C1119.83 84.573 1133.16 75.6972 1146.56 67.2325C1208.28 28.2486 1271.51 -2.22831 1352.41 8.23369Z" stroke="#F8BD00" stroke-opacity="0.46" stroke-width="4"/>
<path d="M1352.41 8.23369C1390.65 13.1782 1415.68 26.4422 1433.37 44.5175C1451.1 62.6433 1461.6 85.7647 1470.47 110.747C1473.35 118.864 1476.07 127.202 1478.81 135.619C1484.46 152.964 1490.23 170.643 1497.77 187.409C1509.02 212.427 1524.37 235.743 1549.59 253.743C1587.57 280.848 1642.98 295.715 1698.57 310.138C1700.33 310.592 1702.08 311.046 1703.83 311.499C1757.88 325.508 1811.67 339.447 1850.48 363.933C1925.71 411.407 1967.9 471.674 2009.98 531.774C2015.14 539.154 2020.31 546.532 2025.53 553.883C2039.26 573.202 2055.63 592.522 2072.03 611.849L2072.33 612.202C2088.65 631.439 2104.97 650.686 2118.87 670.073C2146.87 709.156 2164.58 748.258 2152.79 788.291C2141.01 828.251 2105.76 864.191 2059.12 896.654C2012.53 929.076 1954.9 957.803 1898.9 983.462C1850.24 1005.76 1787.16 1014.24 1724.1 1022.73C1719.92 1023.29 1715.74 1023.86 1711.57 1024.42C1644.63 1033.51 1578.72 1043.62 1532.41 1071.78C1502.15 1090.18 1484.08 1116.25 1471.27 1144.86C1462.11 1165.34 1455.58 1187.26 1449.23 1208.62C1446.73 1217 1444.27 1225.3 1441.68 1233.38C1432.43 1262.22 1421.6 1288.51 1402.49 1307.77C1383.46 1326.95 1356.01 1339.36 1313.08 1339.97C1212.58 1341.39 1151.56 1295.91 1096.34 1240.31C1083.99 1227.88 1071.95 1214.95 1059.81 1201.93C1058.36 1200.37 1056.91 1198.81 1055.46 1197.26C1041.85 1182.67 1028.07 1168.01 1013.61 1153.91C984.691 1125.69 953 1099.62 914.336 1080.48C843.665 1045.48 752.411 1024.93 660.53 1016.75C604.969 1011.81 543.2 1020.54 482.918 1029.06C468.452 1031.11 454.072 1033.14 439.884 1034.97C403.152 1039.71 367.677 1043.09 335.143 1041.86C302.61 1040.64 273.149 1034.81 248.38 1021.24C236.782 1014.88 229.214 1007.83 224.627 1000.31C220.05 992.802 218.355 984.685 218.725 976.032C219.473 958.578 228.598 939.139 239.348 918.72C241.092 915.408 242.877 912.073 244.671 908.72C253.844 891.581 263.252 874.002 268.51 856.963C274.824 836.5 275.295 816.383 262.022 798.375C247.925 779.249 225.484 763.779 199.074 750.174C172.644 736.559 142.022 724.708 111.413 712.93L109.458 712.178C79.4565 700.636 49.5481 689.13 23.4552 676.025C-3.22218 662.627 -25.7 647.657 -40.1501 629.471C-69.5305 592.494 -102.823 545.118 -115.116 500.772C-121.253 478.634 -122.102 457.442 -114.801 438.729C-107.517 420.061 -92.0056 403.563 -64.8194 390.999C10.4378 356.221 109.405 363.146 212.586 373.62C221.242 374.499 229.927 375.403 238.628 376.308C333.373 386.166 430.087 396.228 512.823 376.608C537.183 370.831 553.516 360.305 565.534 347.122C577.504 333.99 585.107 318.309 592.148 302.43C593.126 300.222 594.095 298.011 595.063 295.8C608.077 266.076 621.011 236.536 658.062 219.574C697.41 201.561 747.717 197.551 799.761 194.673C804.38 194.417 809.013 194.171 813.652 193.924C861.104 191.399 909.221 188.838 950.387 176.319C1008.52 158.637 1058.08 125.66 1106.39 93.513C1119.83 84.573 1133.16 75.6972 1146.56 67.2325C1208.28 28.2486 1271.51 -2.22831 1352.41 8.23369Z" stroke="#F8BD00" stroke-opacity="0.46" stroke-width="4"/>
</g>
</svg>
