<svg width="32" height="32" viewBox="0 0 32 32" fill="none" xmlns="http://www.w3.org/2000/svg">
<g clip-path="url(#clip0_78_127)">
<path d="M20.5 2.65247H11.5C10.3954 2.65247 9.5 3.54777 9.5 4.65244V5.95989H22.5V4.65244C22.5 3.54784 21.6046 2.65247 20.5 2.65247Z" fill="white"/>
<path d="M0 7.2934V10.3001L6.0406 18.2125C6.29126 18.54 6.68749 18.736 7.10017 18.736H14.5889V17.4635H17.4111V18.736H24.9C25.3128 18.736 25.7086 18.54 25.9593 18.2119L32.0001 10.3149V7.29333L0 7.2934Z" fill="white"/>
<path d="M27.0185 19.0218C26.5172 19.6774 25.7255 20.0693 24.9 20.0693H17.4111V20.4635C17.4111 21.243 16.7794 21.8746 16 21.8746C15.2207 21.8746 14.589 21.243 14.589 20.4635V20.0693H7.10024C6.27501 20.0693 5.48303 19.678 4.9811 19.0218L0 12.4971V29.3476H32V12.5087L27.0185 19.0218Z" fill="white"/>
</g>
<defs>
<clipPath id="clip0_78_127">
<rect width="32" height="32" fill="white"/>
</clipPath>
</defs>
</svg>
