<svg width="26" height="25" viewBox="0 0 26 25" fill="none" xmlns="http://www.w3.org/2000/svg">
<g opacity="0.6">
<path d="M0.48999 12.5C0.48999 5.59644 6.15446 0 13.058 0C19.9616 0 25.626 5.59644 25.626 12.5C25.626 19.4036 19.9616 25 13.058 25C6.15446 25 0.48999 19.4036 0.48999 12.5Z" fill="#D9D9D9" fill-opacity="0.13"/>
<mask id="path-2-inside-1_78_98" fill="white">
<path fill-rule="evenodd" clip-rule="evenodd" d="M3.75629 3.25488C2.58472 4.42646 2.58472 6.31207 2.58472 10.0833V14.9166C2.58472 18.6879 2.58472 20.5735 3.75629 21.7451C4.92786 22.9166 6.81348 22.9166 10.5847 22.9166H15.5314C19.3027 22.9166 21.1883 22.9166 22.3599 21.7451C23.5314 20.5735 23.5314 18.6879 23.5314 14.9166V10.0833C23.5314 7.19986 23.5314 5.41874 23.0078 4.21628V17.7083C22.0016 17.7083 21.0363 17.31 20.3229 16.6005L19.537 15.8188C18.7155 15.0018 18.3048 14.5933 17.8284 14.4487C17.4496 14.3337 17.0452 14.3337 16.6664 14.4487C16.19 14.5933 15.7793 15.0018 14.9578 15.8188L14.9578 15.8188L14.8381 15.9379L14.8381 15.9379C14.1764 16.5961 13.8455 16.9251 13.488 16.9586C13.2983 16.9763 13.1074 16.9395 12.9379 16.8524C12.6186 16.6884 12.4339 16.2598 12.0646 15.4027L12.0107 15.2778C11.173 13.3336 10.7541 12.3615 9.99251 12.0534C9.75222 11.9561 9.49533 11.9066 9.23612 11.9074C8.41458 11.91 7.66408 12.6564 6.16307 14.1493L6.16306 14.1493L4.15572 16.1458V2.91943C4.01356 3.01894 3.88089 3.13028 3.75629 3.25488Z"/>
</mask>
<path fill-rule="evenodd" clip-rule="evenodd" d="M3.75629 3.25488C2.58472 4.42646 2.58472 6.31207 2.58472 10.0833V14.9166C2.58472 18.6879 2.58472 20.5735 3.75629 21.7451C4.92786 22.9166 6.81348 22.9166 10.5847 22.9166H15.5314C19.3027 22.9166 21.1883 22.9166 22.3599 21.7451C23.5314 20.5735 23.5314 18.6879 23.5314 14.9166V10.0833C23.5314 7.19986 23.5314 5.41874 23.0078 4.21628V17.7083C22.0016 17.7083 21.0363 17.31 20.3229 16.6005L19.537 15.8188C18.7155 15.0018 18.3048 14.5933 17.8284 14.4487C17.4496 14.3337 17.0452 14.3337 16.6664 14.4487C16.19 14.5933 15.7793 15.0018 14.9578 15.8188L14.9578 15.8188L14.8381 15.9379L14.8381 15.9379C14.1764 16.5961 13.8455 16.9251 13.488 16.9586C13.2983 16.9763 13.1074 16.9395 12.9379 16.8524C12.6186 16.6884 12.4339 16.2598 12.0646 15.4027L12.0107 15.2778C11.173 13.3336 10.7541 12.3615 9.99251 12.0534C9.75222 11.9561 9.49533 11.9066 9.23612 11.9074C8.41458 11.91 7.66408 12.6564 6.16307 14.1493L6.16306 14.1493L4.15572 16.1458V2.91943C4.01356 3.01894 3.88089 3.13028 3.75629 3.25488Z" fill="white"/>
<path d="M3.75629 3.25488L2.34208 1.84067L2.34208 1.84067L3.75629 3.25488ZM3.75629 21.7451L5.1705 20.3309L5.1705 20.3309L3.75629 21.7451ZM23.0078 4.21628L24.8414 3.41773L21.0078 4.21628H23.0078ZM23.0078 17.7083V19.7083H25.0078V17.7083H23.0078ZM20.3229 16.6005L18.9125 18.0185H18.9125L20.3229 16.6005ZM19.537 15.8188L20.9474 14.4008L20.9474 14.4008L19.537 15.8188ZM17.8284 14.4487L17.2474 16.3624L17.2474 16.3624L17.8284 14.4487ZM16.6664 14.4487L17.2474 16.3624L17.2474 16.3624L16.6664 14.4487ZM14.9578 15.8188L13.5475 14.4008L13.5436 14.4046L14.9578 15.8188ZM14.9578 15.8188L16.3682 17.2369L16.372 17.233L14.9578 15.8188ZM14.8381 15.9379L13.4277 14.5199L13.4239 14.5237L14.8381 15.9379ZM14.8381 15.9379L16.2485 17.356L16.2523 17.3521L14.8381 15.9379ZM13.488 16.9586L13.6744 18.9499H13.6744L13.488 16.9586ZM12.9379 16.8524L12.0241 18.6314L12.0241 18.6314L12.9379 16.8524ZM12.0646 15.4027L13.9013 14.6113L13.9013 14.6113L12.0646 15.4027ZM12.0107 15.2778L10.174 16.0692L10.174 16.0692L12.0107 15.2778ZM9.99251 12.0534L9.24246 13.9074L9.99251 12.0534ZM9.23612 11.9074L9.22977 9.9074H9.22977L9.23612 11.9074ZM6.16307 14.1493L4.7527 12.7313L4.64998 12.8334L4.56307 12.9493L6.16307 14.1493ZM6.16306 14.1493L7.57343 15.5674L7.67614 15.4652L7.76306 15.3493L6.16306 14.1493ZM4.15572 16.1458H2.15572V20.9558L5.56609 17.5639L4.15572 16.1458ZM4.15572 2.91943H6.15572V-0.921731L3.00885 1.28093L4.15572 2.91943ZM4.58472 10.0833C4.58472 8.14115 4.58896 6.88573 4.71333 5.96072C4.82996 5.09324 5.01825 4.82134 5.1705 4.6691L2.34208 1.84067C1.32275 2.85999 0.925262 4.11669 0.748998 5.42773C0.580469 6.68123 0.584717 8.25423 0.584717 10.0833H4.58472ZM4.58472 14.9166V10.0833H0.584717V14.9166H4.58472ZM5.1705 20.3309C5.01825 20.1786 4.82996 19.9067 4.71333 19.0392C4.58896 18.1142 4.58472 16.8588 4.58472 14.9166H0.584717C0.584717 16.7457 0.580469 18.3187 0.748998 19.5722C0.925262 20.8833 1.32275 22.14 2.34208 23.1593L5.1705 20.3309ZM10.5847 20.9166C8.64256 20.9166 7.38714 20.9124 6.46212 20.788C5.59465 20.6714 5.32275 20.4831 5.1705 20.3309L2.34208 23.1593C3.3614 24.1786 4.6181 24.5761 5.92913 24.7524C7.18263 24.9209 8.75564 24.9166 10.5847 24.9166V20.9166ZM15.5314 20.9166H10.5847V24.9166H15.5314V20.9166ZM20.9456 20.3309C20.7934 20.4831 20.5215 20.6714 19.654 20.788C18.729 20.9124 17.4736 20.9166 15.5314 20.9166V24.9166C17.3605 24.9166 18.9335 24.9209 20.187 24.7524C21.498 24.5761 22.7547 24.1786 23.7741 23.1593L20.9456 20.3309ZM21.5314 14.9166C21.5314 16.8588 21.5272 18.1142 21.4028 19.0392C21.2862 19.9067 21.0979 20.1786 20.9456 20.3309L23.7741 23.1593C24.7934 22.14 25.1909 20.8833 25.3671 19.5722C25.5357 18.3187 25.5314 16.7457 25.5314 14.9166H21.5314ZM21.5314 10.0833V14.9166H25.5314V10.0833H21.5314ZM21.1741 5.01483C21.2994 5.30256 21.4105 5.77841 21.4706 6.65604C21.5304 7.52855 21.5314 8.61674 21.5314 10.0833H25.5314C25.5314 8.66643 25.5325 7.42234 25.4613 6.3828C25.3905 5.3484 25.2398 4.33246 24.8414 3.41773L21.1741 5.01483ZM21.0078 4.21628V17.7083H25.0078V4.21628H21.0078ZM23.0078 15.7083C22.5301 15.7083 22.0719 15.5192 21.7332 15.1824L18.9125 18.0185C20.0007 19.1008 21.473 19.7083 23.0078 19.7083V15.7083ZM21.7333 15.1824L20.9474 14.4008L18.1266 17.2369L18.9125 18.0185L21.7333 15.1824ZM20.9474 14.4008C20.5609 14.0164 20.1838 13.639 19.839 13.3497C19.4751 13.0442 19.0131 12.7182 18.4095 12.5349L17.2474 16.3624C17.1202 16.3238 17.1017 16.2743 17.2676 16.4136C17.4526 16.5689 17.6916 16.8042 18.1266 17.2369L20.9474 14.4008ZM18.4095 12.5349C17.6518 12.3049 16.843 12.3049 16.0853 12.5349L17.2474 16.3624L17.2474 16.3624L18.4095 12.5349ZM16.0854 12.5349C15.4818 12.7182 15.0197 13.0442 14.6558 13.3497C14.311 13.639 13.9339 14.0164 13.5475 14.4008L16.3682 17.2369C16.8032 16.8042 17.0422 16.5688 17.2273 16.4136C17.3932 16.2743 17.3746 16.3238 17.2474 16.3624L16.0854 12.5349ZM13.5436 14.4046L13.5436 14.4046L16.372 17.233L16.3721 17.233L13.5436 14.4046ZM13.5475 14.4008L13.4277 14.5199L16.2485 17.356L16.3682 17.2369L13.5475 14.4008ZM13.4239 14.5237L13.4239 14.5237L16.2523 17.3521L16.2523 17.3521L13.4239 14.5237ZM13.4277 14.5199C13.2581 14.6886 13.1287 14.8172 13.0164 14.9245C12.9032 15.0327 12.8363 15.0913 12.7967 15.123C12.7561 15.1557 12.7828 15.1285 12.8619 15.0889C12.9531 15.0433 13.1047 14.9857 13.3017 14.9673L13.6744 18.9499C14.4328 18.8789 14.9794 18.5004 15.3012 18.242C15.614 17.9908 15.9498 17.653 16.2485 17.356L13.4277 14.5199ZM13.3017 14.9673C13.4914 14.9495 13.6823 14.9864 13.8518 15.0734L12.0241 18.6314C12.5326 18.8927 13.1052 19.0031 13.6744 18.9499L13.3017 14.9673ZM13.8518 15.0734C14.0278 15.1639 14.1471 15.2737 14.2148 15.3499C14.2735 15.4162 14.2881 15.4513 14.2626 15.4059C14.2377 15.3617 14.1973 15.2824 14.1326 15.1399C14.0683 14.9985 13.996 14.8309 13.9013 14.6113L10.2279 16.1942C10.3945 16.581 10.5806 17.0195 10.7774 17.369C10.98 17.7286 11.3464 18.2833 12.0241 18.6314L13.8518 15.0734ZM13.9013 14.6113L13.8475 14.4863L10.174 16.0692L10.2279 16.1942L13.9013 14.6113ZM13.8475 14.4863C13.4491 13.5617 13.0816 12.7003 12.7026 12.0476C12.3143 11.379 11.7342 10.6005 10.7426 10.1993L9.24246 13.9074C9.01239 13.8143 9.02256 13.6759 9.24355 14.0564C9.47378 14.4528 9.73465 15.0496 10.174 16.0692L13.8475 14.4863ZM10.7426 10.1993C10.262 10.0049 9.74819 9.90576 9.22977 9.9074L9.24246 13.9074L9.24246 13.9074L10.7426 10.1993ZM9.22977 9.9074C8.16005 9.9108 7.33197 10.4176 6.72279 10.8937C6.12811 11.3585 5.46652 12.0213 4.7527 12.7313L7.57344 15.5674C8.36062 14.7844 8.8248 14.3276 9.186 14.0453C9.53271 13.7743 9.49065 13.9066 9.24246 13.9074L9.22977 9.9074ZM4.56307 12.9493L4.56306 12.9493L7.76306 15.3493L7.76307 15.3493L4.56307 12.9493ZM4.75269 12.7313L2.74535 14.7278L5.56609 17.5639L7.57343 15.5674L4.75269 12.7313ZM6.15572 16.1458V2.91943H2.15572V16.1458H6.15572ZM5.1705 4.6691C5.2135 4.6261 5.25684 4.58996 5.30259 4.55793L3.00885 1.28093C2.77028 1.44792 2.54828 1.63447 2.34208 1.84067L5.1705 4.6691Z" fill="white" mask="url(#path-2-inside-1_78_98)"/>
<path d="M3.58472 10.0834C3.58472 8.16949 3.58684 6.83467 3.72225 5.82754C3.85378 4.84917 4.09438 4.33107 4.4634 3.96205C4.83241 3.59304 5.35051 3.35244 6.32888 3.2209C7.33601 3.0855 8.67083 3.08337 10.5847 3.08337H15.5314C17.4453 3.08337 18.7801 3.0855 19.7873 3.2209C20.7656 3.35244 21.2837 3.59304 21.6527 3.96205C22.0218 4.33107 22.2624 4.84917 22.3939 5.82753C22.5293 6.83467 22.5314 8.16949 22.5314 10.0834V14.9167C22.5314 16.8306 22.5293 18.1654 22.3939 19.1725C22.2624 20.1509 22.0218 20.669 21.6527 21.038C21.2837 21.407 20.7656 21.6476 19.7873 21.7792C18.7801 21.9146 17.4453 21.9167 15.5314 21.9167H10.5847C8.67083 21.9167 7.33601 21.9146 6.32888 21.7792C5.35051 21.6476 4.83241 21.407 4.4634 21.038C4.09438 20.669 3.85378 20.1509 3.72225 19.1725C3.58684 18.1654 3.58472 16.8306 3.58472 14.9167V10.0834Z" stroke="white" stroke-width="2"/>
<ellipse cx="16.2001" cy="9.37496" rx="2.09467" ry="2.08333" fill="#222222" stroke="white" stroke-width="2" stroke-linecap="round"/>
</g>
</svg>
