<svg width="51" height="44" viewBox="0 0 51 44" fill="none" xmlns="http://www.w3.org/2000/svg">
<path fill-rule="evenodd" clip-rule="evenodd" d="M11.1253 18.2177C10.5464 19.2913 10.5464 20.5126 10.5464 22.9553V30.5841C10.5464 33.9765 10.5464 35.6726 11.782 36.7265C13.0175 37.7804 15.0062 37.7804 18.9834 37.7804H19.0381V28.7851C19.0381 27.096 20.5852 25.9861 22.1473 25.9861H28.4751C30.0372 25.9861 31.5844 27.096 31.5844 28.7851V37.7804H31.639C35.6162 37.7804 37.6049 37.7804 38.8404 36.7265C40.076 35.6726 40.076 33.9765 40.076 30.5841V22.9553C40.076 20.5126 40.076 19.2913 39.4971 18.2177C38.9182 17.1441 37.831 16.3493 35.6566 14.7596L33.5473 13.2175C29.6171 10.3441 27.652 8.90747 25.3112 8.90747C22.9704 8.90747 21.0053 10.3441 17.0751 13.2175L17.0751 13.2175L14.9658 14.7596C12.7914 16.3493 11.7042 17.1441 11.1253 18.2177ZM29.5844 37.7804V28.7851C29.5844 28.4871 29.2428 27.9861 28.4751 27.9861H22.1473C21.3796 27.9861 21.0381 28.4871 21.0381 28.7851V37.7804H29.5844Z" fill="#F8BD00"/>
</svg>
