<svg width="42" height="39" viewBox="0 0 42 39" fill="none" xmlns="http://www.w3.org/2000/svg">
<path fill-rule="evenodd" clip-rule="evenodd" d="M35.6873 9.63243C36.75 11.6206 36.75 14.2471 36.75 19.5C36.75 24.7529 36.75 27.3794 35.6873 29.3676C34.8482 30.9374 33.5624 32.2232 31.9926 33.0623C30.0044 34.125 27.3779 34.125 22.125 34.125H11.25C8.42157 34.125 7.00736 34.125 6.12868 33.2463C5.25 32.3676 5.25 30.9534 5.25 28.125V20.625C5.25 14.3049 5.25 11.1449 6.76677 8.87487C7.4234 7.89216 8.26716 7.0484 9.24987 6.39177C11.5199 4.875 14.6799 4.875 21 4.875H22.125C27.3779 4.875 30.0044 4.875 31.9926 5.93771C33.5624 6.77681 34.8482 8.06258 35.6873 9.63243ZM27.25 17.875C27.25 17.3227 26.8023 16.875 26.25 16.875H15.75C15.1977 16.875 14.75 17.3227 14.75 17.875C14.75 18.4273 15.1977 18.875 15.75 18.875H26.25C26.8023 18.875 27.25 18.4273 27.25 17.875ZM22 24.375C22 23.8227 21.5523 23.375 21 23.375H15.75C15.1977 23.375 14.75 23.8227 14.75 24.375C14.75 24.9273 15.1977 25.375 15.75 25.375H21C21.5523 25.375 22 24.9273 22 24.375Z" fill="white"/>
</svg>
